<mxfile host="app.diagrams.net" agent="Mozilla/5.0 (Macintosh; Intel Mac OS X 10_15_7) AppleWebKit/537.36 (KHTML, like Gecko) Chrome/136.0.0.0 Safari/537.36" version="27.0.6">
  <diagram id="C5RBs43oDa-KdzZeNtuy" name="Page-1">
    <mxGraphModel dx="2431" dy="1353" grid="1" gridSize="10" guides="1" tooltips="1" connect="1" arrows="1" fold="1" page="1" pageScale="1" pageWidth="827" pageHeight="1169" math="0" shadow="0">
      <root>
        <mxCell id="WIyWlLk6GJQsqaUBKTNV-0" />
        <mxCell id="WIyWlLk6GJQsqaUBKTNV-1" parent="WIyWlLk6GJQsqaUBKTNV-0" />
        <mxCell id="X-wY6sLNJJ8y5qjuj98b-61" value="" style="rounded=0;html=1;jettySize=auto;orthogonalLoop=1;fontSize=11;endArrow=block;endFill=0;endSize=8;strokeWidth=1;shadow=0;labelBackgroundColor=none;edgeStyle=orthogonalEdgeStyle;" edge="1" source="X-wY6sLNJJ8y5qjuj98b-62" target="X-wY6sLNJJ8y5qjuj98b-64" parent="WIyWlLk6GJQsqaUBKTNV-1">
          <mxGeometry relative="1" as="geometry" />
        </mxCell>
        <mxCell id="X-wY6sLNJJ8y5qjuj98b-62" value="기안서 선택" style="rounded=1;whiteSpace=wrap;html=1;fontSize=12;glass=0;strokeWidth=1;shadow=0;" vertex="1" parent="WIyWlLk6GJQsqaUBKTNV-1">
          <mxGeometry x="991" y="50" width="120" height="40" as="geometry" />
        </mxCell>
        <mxCell id="X-wY6sLNJJ8y5qjuj98b-63" value="N" style="edgeStyle=orthogonalEdgeStyle;rounded=0;orthogonalLoop=1;jettySize=auto;html=1;" edge="1" source="X-wY6sLNJJ8y5qjuj98b-64" parent="WIyWlLk6GJQsqaUBKTNV-1">
          <mxGeometry relative="1" as="geometry">
            <mxPoint x="1051" y="430" as="targetPoint" />
          </mxGeometry>
        </mxCell>
        <mxCell id="X-wY6sLNJJ8y5qjuj98b-64" value="양식을 선택했나?" style="rhombus;whiteSpace=wrap;html=1;shadow=0;fontFamily=Helvetica;fontSize=12;align=center;strokeWidth=1;spacing=6;spacingTop=-4;" vertex="1" parent="WIyWlLk6GJQsqaUBKTNV-1">
          <mxGeometry x="1001" y="170" width="100" height="80" as="geometry" />
        </mxCell>
        <mxCell id="X-wY6sLNJJ8y5qjuj98b-65" value="N" style="edgeStyle=orthogonalEdgeStyle;rounded=0;orthogonalLoop=1;jettySize=auto;html=1;" edge="1" source="X-wY6sLNJJ8y5qjuj98b-66" target="X-wY6sLNJJ8y5qjuj98b-68" parent="WIyWlLk6GJQsqaUBKTNV-1">
          <mxGeometry relative="1" as="geometry" />
        </mxCell>
        <mxCell id="X-wY6sLNJJ8y5qjuj98b-66" value="양식에 필수 입력 값이 존재하나?(예: 연도 등)" style="rhombus;whiteSpace=wrap;html=1;shadow=0;fontFamily=Helvetica;fontSize=12;align=center;strokeWidth=1;spacing=6;spacingTop=-4;" vertex="1" parent="WIyWlLk6GJQsqaUBKTNV-1">
          <mxGeometry x="1141" y="155" width="150" height="110" as="geometry" />
        </mxCell>
        <mxCell id="X-wY6sLNJJ8y5qjuj98b-67" style="edgeStyle=orthogonalEdgeStyle;rounded=0;orthogonalLoop=1;jettySize=auto;html=1;" edge="1" source="X-wY6sLNJJ8y5qjuj98b-68" parent="WIyWlLk6GJQsqaUBKTNV-1">
          <mxGeometry relative="1" as="geometry">
            <mxPoint x="1051" y="430" as="targetPoint" />
          </mxGeometry>
        </mxCell>
        <mxCell id="X-wY6sLNJJ8y5qjuj98b-68" value="양식 불러오기" style="rounded=1;whiteSpace=wrap;html=1;shadow=0;strokeWidth=1;spacing=6;spacingTop=-4;" vertex="1" parent="WIyWlLk6GJQsqaUBKTNV-1">
          <mxGeometry x="1156" y="350" width="120" height="60" as="geometry" />
        </mxCell>
        <mxCell id="X-wY6sLNJJ8y5qjuj98b-69" value="Y" style="edgeStyle=orthogonalEdgeStyle;rounded=0;orthogonalLoop=1;jettySize=auto;html=1;entryX=0;entryY=0.5;entryDx=0;entryDy=0;" edge="1" source="X-wY6sLNJJ8y5qjuj98b-64" target="X-wY6sLNJJ8y5qjuj98b-66" parent="WIyWlLk6GJQsqaUBKTNV-1">
          <mxGeometry relative="1" as="geometry">
            <mxPoint x="1161" y="210" as="targetPoint" />
          </mxGeometry>
        </mxCell>
        <mxCell id="X-wY6sLNJJ8y5qjuj98b-70" value="Y" style="edgeStyle=orthogonalEdgeStyle;rounded=0;orthogonalLoop=1;jettySize=auto;html=1;" edge="1" source="X-wY6sLNJJ8y5qjuj98b-66" target="X-wY6sLNJJ8y5qjuj98b-72" parent="WIyWlLk6GJQsqaUBKTNV-1">
          <mxGeometry relative="1" as="geometry">
            <mxPoint x="1456.04" y="239.51999999999998" as="targetPoint" />
          </mxGeometry>
        </mxCell>
        <mxCell id="X-wY6sLNJJ8y5qjuj98b-71" value="Y" style="edgeStyle=orthogonalEdgeStyle;rounded=0;orthogonalLoop=1;jettySize=auto;html=1;" edge="1" source="X-wY6sLNJJ8y5qjuj98b-72" target="X-wY6sLNJJ8y5qjuj98b-75" parent="WIyWlLk6GJQsqaUBKTNV-1">
          <mxGeometry relative="1" as="geometry">
            <Array as="points">
              <mxPoint x="1561" y="210" />
            </Array>
          </mxGeometry>
        </mxCell>
        <mxCell id="X-wY6sLNJJ8y5qjuj98b-72" value="양식에 관련된 API 호출이 필요한가?" style="rhombus;whiteSpace=wrap;html=1;shadow=0;fontFamily=Helvetica;fontSize=12;align=center;strokeWidth=1;spacing=6;spacingTop=-4;" vertex="1" parent="WIyWlLk6GJQsqaUBKTNV-1">
          <mxGeometry x="1351" y="155" width="150" height="110" as="geometry" />
        </mxCell>
        <mxCell id="X-wY6sLNJJ8y5qjuj98b-73" value="N" style="edgeStyle=orthogonalEdgeStyle;rounded=0;orthogonalLoop=1;jettySize=auto;html=1;entryX=1;entryY=0.5;entryDx=0;entryDy=0;" edge="1" source="X-wY6sLNJJ8y5qjuj98b-72" target="X-wY6sLNJJ8y5qjuj98b-68" parent="WIyWlLk6GJQsqaUBKTNV-1">
          <mxGeometry relative="1" as="geometry">
            <mxPoint x="1311" y="380" as="targetPoint" />
            <Array as="points">
              <mxPoint x="1426" y="380" />
            </Array>
          </mxGeometry>
        </mxCell>
        <mxCell id="X-wY6sLNJJ8y5qjuj98b-74" style="edgeStyle=orthogonalEdgeStyle;rounded=0;orthogonalLoop=1;jettySize=auto;html=1;entryX=0.508;entryY=0.048;entryDx=0;entryDy=0;entryPerimeter=0;" edge="1" source="X-wY6sLNJJ8y5qjuj98b-75" target="X-wY6sLNJJ8y5qjuj98b-78" parent="WIyWlLk6GJQsqaUBKTNV-1">
          <mxGeometry relative="1" as="geometry">
            <mxPoint x="1571" y="410" as="targetPoint" />
          </mxGeometry>
        </mxCell>
        <mxCell id="X-wY6sLNJJ8y5qjuj98b-75" value="API 호출" style="rounded=1;whiteSpace=wrap;html=1;shadow=0;strokeWidth=1;spacing=6;spacingTop=-4;" vertex="1" parent="WIyWlLk6GJQsqaUBKTNV-1">
          <mxGeometry x="1496" y="290" width="120" height="60" as="geometry" />
        </mxCell>
        <mxCell id="X-wY6sLNJJ8y5qjuj98b-76" value="Y(관련 데이터 응답)" style="edgeStyle=orthogonalEdgeStyle;rounded=0;orthogonalLoop=1;jettySize=auto;html=1;entryX=1;entryY=0.5;entryDx=0;entryDy=0;" edge="1" source="X-wY6sLNJJ8y5qjuj98b-78" target="X-wY6sLNJJ8y5qjuj98b-68" parent="WIyWlLk6GJQsqaUBKTNV-1">
          <mxGeometry relative="1" as="geometry">
            <mxPoint x="1291" y="380" as="targetPoint" />
            <Array as="points">
              <mxPoint x="1361" y="465" />
              <mxPoint x="1361" y="380" />
            </Array>
          </mxGeometry>
        </mxCell>
        <mxCell id="X-wY6sLNJJ8y5qjuj98b-77" value="N" style="edgeStyle=orthogonalEdgeStyle;rounded=0;orthogonalLoop=1;jettySize=auto;html=1;entryX=1;entryY=0.25;entryDx=0;entryDy=0;" edge="1" source="X-wY6sLNJJ8y5qjuj98b-78" target="X-wY6sLNJJ8y5qjuj98b-62" parent="WIyWlLk6GJQsqaUBKTNV-1">
          <mxGeometry relative="1" as="geometry">
            <Array as="points">
              <mxPoint x="1641" y="465" />
              <mxPoint x="1641" y="60" />
            </Array>
          </mxGeometry>
        </mxCell>
        <mxCell id="X-wY6sLNJJ8y5qjuj98b-78" value="응답에 성공했나?" style="rhombus;whiteSpace=wrap;html=1;shadow=0;fontFamily=Helvetica;fontSize=12;align=center;strokeWidth=1;spacing=6;spacingTop=-4;" vertex="1" parent="WIyWlLk6GJQsqaUBKTNV-1">
          <mxGeometry x="1480" y="410" width="150" height="110" as="geometry" />
        </mxCell>
        <mxCell id="X-wY6sLNJJ8y5qjuj98b-79" style="edgeStyle=orthogonalEdgeStyle;rounded=0;orthogonalLoop=1;jettySize=auto;html=1;entryX=0.5;entryY=0;entryDx=0;entryDy=0;" edge="1" source="X-wY6sLNJJ8y5qjuj98b-80" target="X-wY6sLNJJ8y5qjuj98b-82" parent="WIyWlLk6GJQsqaUBKTNV-1">
          <mxGeometry relative="1" as="geometry" />
        </mxCell>
        <mxCell id="X-wY6sLNJJ8y5qjuj98b-80" value="기안서 작성&lt;div&gt;- 제목, 내용 입력&lt;/div&gt;&lt;div&gt;- 첨부파일 업로드&lt;/div&gt;&lt;div&gt;- 결재선 지정&lt;/div&gt;" style="rounded=1;whiteSpace=wrap;html=1;shadow=0;strokeWidth=1;spacing=6;spacingTop=-4;align=center;" vertex="1" parent="WIyWlLk6GJQsqaUBKTNV-1">
          <mxGeometry x="991" y="435" width="120" height="105" as="geometry" />
        </mxCell>
        <mxCell id="X-wY6sLNJJ8y5qjuj98b-81" style="edgeStyle=orthogonalEdgeStyle;rounded=0;orthogonalLoop=1;jettySize=auto;html=1;entryX=0.5;entryY=0;entryDx=0;entryDy=0;" edge="1" source="X-wY6sLNJJ8y5qjuj98b-82" target="X-wY6sLNJJ8y5qjuj98b-85" parent="WIyWlLk6GJQsqaUBKTNV-1">
          <mxGeometry relative="1" as="geometry" />
        </mxCell>
        <mxCell id="X-wY6sLNJJ8y5qjuj98b-82" value="기안서 제출" style="rounded=1;whiteSpace=wrap;html=1;shadow=0;strokeWidth=1;spacing=6;spacingTop=-4;" vertex="1" parent="WIyWlLk6GJQsqaUBKTNV-1">
          <mxGeometry x="991" y="585" width="120" height="60" as="geometry" />
        </mxCell>
        <mxCell id="X-wY6sLNJJ8y5qjuj98b-83" value="Y" style="edgeStyle=orthogonalEdgeStyle;rounded=0;orthogonalLoop=1;jettySize=auto;html=1;" edge="1" source="X-wY6sLNJJ8y5qjuj98b-85" target="X-wY6sLNJJ8y5qjuj98b-87" parent="WIyWlLk6GJQsqaUBKTNV-1">
          <mxGeometry relative="1" as="geometry" />
        </mxCell>
        <mxCell id="X-wY6sLNJJ8y5qjuj98b-84" value="N" style="edgeStyle=orthogonalEdgeStyle;rounded=0;orthogonalLoop=1;jettySize=auto;html=1;" edge="1" source="X-wY6sLNJJ8y5qjuj98b-85" target="X-wY6sLNJJ8y5qjuj98b-89" parent="WIyWlLk6GJQsqaUBKTNV-1">
          <mxGeometry relative="1" as="geometry" />
        </mxCell>
        <mxCell id="X-wY6sLNJJ8y5qjuj98b-85" value="첨부파일이 존재하는가?" style="rhombus;whiteSpace=wrap;html=1;shadow=0;fontFamily=Helvetica;fontSize=12;align=center;strokeWidth=1;spacing=6;spacingTop=-4;" vertex="1" parent="WIyWlLk6GJQsqaUBKTNV-1">
          <mxGeometry x="976" y="700" width="150" height="110" as="geometry" />
        </mxCell>
        <mxCell id="X-wY6sLNJJ8y5qjuj98b-86" style="edgeStyle=orthogonalEdgeStyle;rounded=0;orthogonalLoop=1;jettySize=auto;html=1;entryX=0.5;entryY=0;entryDx=0;entryDy=0;" edge="1" source="X-wY6sLNJJ8y5qjuj98b-87" target="X-wY6sLNJJ8y5qjuj98b-91" parent="WIyWlLk6GJQsqaUBKTNV-1">
          <mxGeometry relative="1" as="geometry" />
        </mxCell>
        <mxCell id="X-wY6sLNJJ8y5qjuj98b-87" value="파일 서버 업로드" style="rounded=1;whiteSpace=wrap;html=1;shadow=0;strokeWidth=1;spacing=6;spacingTop=-4;" vertex="1" parent="WIyWlLk6GJQsqaUBKTNV-1">
          <mxGeometry x="1186" y="725" width="120" height="60" as="geometry" />
        </mxCell>
        <mxCell id="X-wY6sLNJJ8y5qjuj98b-88" style="edgeStyle=orthogonalEdgeStyle;rounded=0;orthogonalLoop=1;jettySize=auto;html=1;" edge="1" source="X-wY6sLNJJ8y5qjuj98b-89" target="X-wY6sLNJJ8y5qjuj98b-103" parent="WIyWlLk6GJQsqaUBKTNV-1">
          <mxGeometry relative="1" as="geometry" />
        </mxCell>
        <mxCell id="X-wY6sLNJJ8y5qjuj98b-89" value="서버 API 요청" style="rounded=1;whiteSpace=wrap;html=1;shadow=0;strokeWidth=1;spacing=6;spacingTop=-4;" vertex="1" parent="WIyWlLk6GJQsqaUBKTNV-1">
          <mxGeometry x="991" y="940" width="120" height="60" as="geometry" />
        </mxCell>
        <mxCell id="X-wY6sLNJJ8y5qjuj98b-90" value="Y&lt;div&gt;(파일 URL 응답)&lt;/div&gt;" style="edgeStyle=orthogonalEdgeStyle;rounded=0;orthogonalLoop=1;jettySize=auto;html=1;" edge="1" source="X-wY6sLNJJ8y5qjuj98b-91" parent="WIyWlLk6GJQsqaUBKTNV-1">
          <mxGeometry relative="1" as="geometry">
            <mxPoint x="1021" y="940" as="targetPoint" />
            <Array as="points">
              <mxPoint x="1021" y="895" />
              <mxPoint x="1021" y="940" />
            </Array>
            <mxPoint as="offset" />
          </mxGeometry>
        </mxCell>
        <mxCell id="X-wY6sLNJJ8y5qjuj98b-91" value="요청에 성공했나 ?" style="rhombus;whiteSpace=wrap;html=1;shadow=0;fontFamily=Helvetica;fontSize=12;align=center;strokeWidth=1;spacing=6;spacingTop=-4;" vertex="1" parent="WIyWlLk6GJQsqaUBKTNV-1">
          <mxGeometry x="1171" y="840" width="150" height="110" as="geometry" />
        </mxCell>
        <mxCell id="X-wY6sLNJJ8y5qjuj98b-92" value="N" style="edgeStyle=orthogonalEdgeStyle;rounded=0;orthogonalLoop=1;jettySize=auto;html=1;" edge="1" source="X-wY6sLNJJ8y5qjuj98b-91" parent="WIyWlLk6GJQsqaUBKTNV-1">
          <mxGeometry relative="1" as="geometry">
            <mxPoint x="1111" y="465" as="targetPoint" />
            <Array as="points">
              <mxPoint x="1341" y="895" />
              <mxPoint x="1341" y="465" />
            </Array>
          </mxGeometry>
        </mxCell>
        <mxCell id="X-wY6sLNJJ8y5qjuj98b-93" value="N" style="edgeStyle=orthogonalEdgeStyle;rounded=0;orthogonalLoop=1;jettySize=auto;html=1;entryX=0.5;entryY=1;entryDx=0;entryDy=0;" edge="1" source="X-wY6sLNJJ8y5qjuj98b-95" target="X-wY6sLNJJ8y5qjuj98b-96" parent="WIyWlLk6GJQsqaUBKTNV-1">
          <mxGeometry relative="1" as="geometry" />
        </mxCell>
        <mxCell id="X-wY6sLNJJ8y5qjuj98b-94" style="edgeStyle=orthogonalEdgeStyle;rounded=0;orthogonalLoop=1;jettySize=auto;html=1;entryX=0.5;entryY=0;entryDx=0;entryDy=0;" edge="1" source="X-wY6sLNJJ8y5qjuj98b-95" target="X-wY6sLNJJ8y5qjuj98b-100" parent="WIyWlLk6GJQsqaUBKTNV-1">
          <mxGeometry relative="1" as="geometry" />
        </mxCell>
        <mxCell id="X-wY6sLNJJ8y5qjuj98b-95" value="결재자가 등록 되어 있는가?" style="rhombus;whiteSpace=wrap;html=1;shadow=0;fontFamily=Helvetica;fontSize=12;align=center;strokeWidth=1;spacing=6;spacingTop=-4;" vertex="1" parent="WIyWlLk6GJQsqaUBKTNV-1">
          <mxGeometry x="1171" y="1169" width="150" height="110" as="geometry" />
        </mxCell>
        <mxCell id="X-wY6sLNJJ8y5qjuj98b-96" value="실패 응답" style="rounded=1;whiteSpace=wrap;html=1;shadow=0;strokeWidth=1;spacing=6;spacingTop=-4;" vertex="1" parent="WIyWlLk6GJQsqaUBKTNV-1">
          <mxGeometry x="841" y="990" width="120" height="60" as="geometry" />
        </mxCell>
        <mxCell id="X-wY6sLNJJ8y5qjuj98b-97" style="edgeStyle=orthogonalEdgeStyle;rounded=0;orthogonalLoop=1;jettySize=auto;html=1;" edge="1" source="X-wY6sLNJJ8y5qjuj98b-96" parent="WIyWlLk6GJQsqaUBKTNV-1">
          <mxGeometry relative="1" as="geometry">
            <mxPoint x="991" y="460" as="targetPoint" />
            <Array as="points">
              <mxPoint x="851" y="460" />
            </Array>
          </mxGeometry>
        </mxCell>
        <mxCell id="X-wY6sLNJJ8y5qjuj98b-98" value="N" style="edgeStyle=orthogonalEdgeStyle;rounded=0;orthogonalLoop=1;jettySize=auto;html=1;entryX=0.5;entryY=1;entryDx=0;entryDy=0;" edge="1" source="X-wY6sLNJJ8y5qjuj98b-100" target="X-wY6sLNJJ8y5qjuj98b-96" parent="WIyWlLk6GJQsqaUBKTNV-1">
          <mxGeometry relative="1" as="geometry" />
        </mxCell>
        <mxCell id="X-wY6sLNJJ8y5qjuj98b-99" value="Y" style="edgeStyle=orthogonalEdgeStyle;rounded=0;orthogonalLoop=1;jettySize=auto;html=1;entryX=0;entryY=0.5;entryDx=0;entryDy=0;" edge="1" source="X-wY6sLNJJ8y5qjuj98b-100" target="X-wY6sLNJJ8y5qjuj98b-107" parent="WIyWlLk6GJQsqaUBKTNV-1">
          <mxGeometry relative="1" as="geometry">
            <mxPoint x="1431" y="1358.5" as="targetPoint" />
          </mxGeometry>
        </mxCell>
        <mxCell id="X-wY6sLNJJ8y5qjuj98b-100" value="제목, 내용에 공란은 존재하지 않는가 ?" style="rhombus;whiteSpace=wrap;html=1;shadow=0;fontFamily=Helvetica;fontSize=12;align=center;strokeWidth=1;spacing=6;spacingTop=-4;" vertex="1" parent="WIyWlLk6GJQsqaUBKTNV-1">
          <mxGeometry x="1171" y="1308" width="150" height="101" as="geometry" />
        </mxCell>
        <mxCell id="X-wY6sLNJJ8y5qjuj98b-101" value="Y" style="edgeStyle=orthogonalEdgeStyle;rounded=0;orthogonalLoop=1;jettySize=auto;html=1;entryX=1;entryY=0.5;entryDx=0;entryDy=0;" edge="1" source="X-wY6sLNJJ8y5qjuj98b-103" target="X-wY6sLNJJ8y5qjuj98b-106" parent="WIyWlLk6GJQsqaUBKTNV-1">
          <mxGeometry relative="1" as="geometry" />
        </mxCell>
        <mxCell id="X-wY6sLNJJ8y5qjuj98b-102" value="N" style="edgeStyle=orthogonalEdgeStyle;rounded=0;orthogonalLoop=1;jettySize=auto;html=1;entryX=1;entryY=0.5;entryDx=0;entryDy=0;" edge="1" source="X-wY6sLNJJ8y5qjuj98b-103" target="X-wY6sLNJJ8y5qjuj98b-95" parent="WIyWlLk6GJQsqaUBKTNV-1">
          <mxGeometry relative="1" as="geometry">
            <Array as="points">
              <mxPoint x="1341" y="1020" />
              <mxPoint x="1341" y="1224" />
            </Array>
          </mxGeometry>
        </mxCell>
        <mxCell id="X-wY6sLNJJ8y5qjuj98b-103" value="첨부파일이 존재하는가?" style="rhombus;whiteSpace=wrap;html=1;shadow=0;fontFamily=Helvetica;fontSize=12;align=center;strokeWidth=1;spacing=6;spacingTop=-4;" vertex="1" parent="WIyWlLk6GJQsqaUBKTNV-1">
          <mxGeometry x="1171" y="965" width="150" height="110" as="geometry" />
        </mxCell>
        <mxCell id="X-wY6sLNJJ8y5qjuj98b-104" value="N" style="edgeStyle=orthogonalEdgeStyle;rounded=0;orthogonalLoop=1;jettySize=auto;html=1;" edge="1" source="X-wY6sLNJJ8y5qjuj98b-106" target="X-wY6sLNJJ8y5qjuj98b-96" parent="WIyWlLk6GJQsqaUBKTNV-1">
          <mxGeometry relative="1" as="geometry" />
        </mxCell>
        <mxCell id="X-wY6sLNJJ8y5qjuj98b-105" value="Y" style="edgeStyle=orthogonalEdgeStyle;rounded=0;orthogonalLoop=1;jettySize=auto;html=1;" edge="1" source="X-wY6sLNJJ8y5qjuj98b-106" target="X-wY6sLNJJ8y5qjuj98b-95" parent="WIyWlLk6GJQsqaUBKTNV-1">
          <mxGeometry relative="1" as="geometry">
            <Array as="points">
              <mxPoint x="1211" y="1150" />
            </Array>
          </mxGeometry>
        </mxCell>
        <mxCell id="X-wY6sLNJJ8y5qjuj98b-106" value="파일 주소가 유효한가?" style="rhombus;whiteSpace=wrap;html=1;shadow=0;fontFamily=Helvetica;fontSize=12;align=center;strokeWidth=1;spacing=6;spacingTop=-4;" vertex="1" parent="WIyWlLk6GJQsqaUBKTNV-1">
          <mxGeometry x="1021" y="1050" width="150" height="110" as="geometry" />
        </mxCell>
        <mxCell id="X-wY6sLNJJ8y5qjuj98b-107" value="결재 문서 등록" style="rounded=1;whiteSpace=wrap;html=1;shadow=0;strokeWidth=1;spacing=6;spacingTop=-4;" vertex="1" parent="WIyWlLk6GJQsqaUBKTNV-1">
          <mxGeometry x="1451" y="1328.5" width="120" height="60" as="geometry" />
        </mxCell>
        <mxCell id="X-wY6sLNJJ8y5qjuj98b-108" value="기안 등록 프로세스" style="text;html=1;align=center;verticalAlign=middle;whiteSpace=wrap;rounded=0;fontSize=20;" vertex="1" parent="WIyWlLk6GJQsqaUBKTNV-1">
          <mxGeometry x="831" width="170" height="30" as="geometry" />
        </mxCell>
        <mxCell id="X-wY6sLNJJ8y5qjuj98b-109" value="" style="group" vertex="1" connectable="0" parent="WIyWlLk6GJQsqaUBKTNV-1">
          <mxGeometry width="820" height="1430" as="geometry" />
        </mxCell>
        <mxCell id="X-wY6sLNJJ8y5qjuj98b-58" value="" style="rounded=0;whiteSpace=wrap;html=1;" vertex="1" parent="X-wY6sLNJJ8y5qjuj98b-109">
          <mxGeometry width="820" height="1430" as="geometry" />
        </mxCell>
        <mxCell id="WIyWlLk6GJQsqaUBKTNV-2" value="" style="rounded=0;html=1;jettySize=auto;orthogonalLoop=1;fontSize=11;endArrow=block;endFill=0;endSize=8;strokeWidth=1;shadow=0;labelBackgroundColor=none;edgeStyle=orthogonalEdgeStyle;" parent="X-wY6sLNJJ8y5qjuj98b-109" source="WIyWlLk6GJQsqaUBKTNV-3" target="WIyWlLk6GJQsqaUBKTNV-6" edge="1">
          <mxGeometry relative="1" as="geometry" />
        </mxCell>
        <mxCell id="WIyWlLk6GJQsqaUBKTNV-3" value="기안서 선택" style="rounded=1;whiteSpace=wrap;html=1;fontSize=12;glass=0;strokeWidth=1;shadow=0;" parent="X-wY6sLNJJ8y5qjuj98b-109" vertex="1">
          <mxGeometry x="160" y="50" width="120" height="40" as="geometry" />
        </mxCell>
        <mxCell id="X-wY6sLNJJ8y5qjuj98b-17" value="N" style="edgeStyle=orthogonalEdgeStyle;rounded=0;orthogonalLoop=1;jettySize=auto;html=1;" edge="1" parent="X-wY6sLNJJ8y5qjuj98b-109" source="WIyWlLk6GJQsqaUBKTNV-6">
          <mxGeometry relative="1" as="geometry">
            <mxPoint x="220" y="430" as="targetPoint" />
          </mxGeometry>
        </mxCell>
        <mxCell id="WIyWlLk6GJQsqaUBKTNV-6" value="양식을 선택했나?" style="rhombus;whiteSpace=wrap;html=1;shadow=0;fontFamily=Helvetica;fontSize=12;align=center;strokeWidth=1;spacing=6;spacingTop=-4;" parent="X-wY6sLNJJ8y5qjuj98b-109" vertex="1">
          <mxGeometry x="170" y="170" width="100" height="80" as="geometry" />
        </mxCell>
        <mxCell id="X-wY6sLNJJ8y5qjuj98b-2" value="N" style="edgeStyle=orthogonalEdgeStyle;rounded=0;orthogonalLoop=1;jettySize=auto;html=1;" edge="1" parent="X-wY6sLNJJ8y5qjuj98b-109" source="X-wY6sLNJJ8y5qjuj98b-0" target="X-wY6sLNJJ8y5qjuj98b-1">
          <mxGeometry relative="1" as="geometry" />
        </mxCell>
        <mxCell id="X-wY6sLNJJ8y5qjuj98b-0" value="양식에 필수 입력 값이 존재하나?(예: 연도 등)" style="rhombus;whiteSpace=wrap;html=1;shadow=0;fontFamily=Helvetica;fontSize=12;align=center;strokeWidth=1;spacing=6;spacingTop=-4;" vertex="1" parent="X-wY6sLNJJ8y5qjuj98b-109">
          <mxGeometry x="310" y="155" width="150" height="110" as="geometry" />
        </mxCell>
        <mxCell id="X-wY6sLNJJ8y5qjuj98b-19" style="edgeStyle=orthogonalEdgeStyle;rounded=0;orthogonalLoop=1;jettySize=auto;html=1;" edge="1" parent="X-wY6sLNJJ8y5qjuj98b-109" source="X-wY6sLNJJ8y5qjuj98b-1">
          <mxGeometry relative="1" as="geometry">
            <mxPoint x="220" y="430" as="targetPoint" />
          </mxGeometry>
        </mxCell>
        <mxCell id="X-wY6sLNJJ8y5qjuj98b-1" value="양식 불러오기" style="rounded=1;whiteSpace=wrap;html=1;shadow=0;strokeWidth=1;spacing=6;spacingTop=-4;" vertex="1" parent="X-wY6sLNJJ8y5qjuj98b-109">
          <mxGeometry x="325" y="350" width="120" height="60" as="geometry" />
        </mxCell>
        <mxCell id="X-wY6sLNJJ8y5qjuj98b-3" value="Y" style="edgeStyle=orthogonalEdgeStyle;rounded=0;orthogonalLoop=1;jettySize=auto;html=1;entryX=0;entryY=0.5;entryDx=0;entryDy=0;" edge="1" parent="X-wY6sLNJJ8y5qjuj98b-109" source="WIyWlLk6GJQsqaUBKTNV-6" target="X-wY6sLNJJ8y5qjuj98b-0">
          <mxGeometry relative="1" as="geometry">
            <mxPoint x="330" y="210" as="targetPoint" />
          </mxGeometry>
        </mxCell>
        <mxCell id="X-wY6sLNJJ8y5qjuj98b-5" value="Y" style="edgeStyle=orthogonalEdgeStyle;rounded=0;orthogonalLoop=1;jettySize=auto;html=1;" edge="1" parent="X-wY6sLNJJ8y5qjuj98b-109" source="X-wY6sLNJJ8y5qjuj98b-0" target="X-wY6sLNJJ8y5qjuj98b-6">
          <mxGeometry relative="1" as="geometry">
            <mxPoint x="625.04" y="239.51999999999998" as="targetPoint" />
          </mxGeometry>
        </mxCell>
        <mxCell id="X-wY6sLNJJ8y5qjuj98b-9" value="Y" style="edgeStyle=orthogonalEdgeStyle;rounded=0;orthogonalLoop=1;jettySize=auto;html=1;" edge="1" parent="X-wY6sLNJJ8y5qjuj98b-109" source="X-wY6sLNJJ8y5qjuj98b-6" target="X-wY6sLNJJ8y5qjuj98b-8">
          <mxGeometry relative="1" as="geometry">
            <Array as="points">
              <mxPoint x="730" y="210" />
            </Array>
          </mxGeometry>
        </mxCell>
        <mxCell id="X-wY6sLNJJ8y5qjuj98b-6" value="양식에 관련된 API 호출이 필요한가?" style="rhombus;whiteSpace=wrap;html=1;shadow=0;fontFamily=Helvetica;fontSize=12;align=center;strokeWidth=1;spacing=6;spacingTop=-4;" vertex="1" parent="X-wY6sLNJJ8y5qjuj98b-109">
          <mxGeometry x="520" y="155" width="150" height="110" as="geometry" />
        </mxCell>
        <mxCell id="X-wY6sLNJJ8y5qjuj98b-7" value="N" style="edgeStyle=orthogonalEdgeStyle;rounded=0;orthogonalLoop=1;jettySize=auto;html=1;entryX=1;entryY=0.5;entryDx=0;entryDy=0;" edge="1" parent="X-wY6sLNJJ8y5qjuj98b-109" source="X-wY6sLNJJ8y5qjuj98b-6" target="X-wY6sLNJJ8y5qjuj98b-1">
          <mxGeometry relative="1" as="geometry">
            <mxPoint x="480" y="380" as="targetPoint" />
            <Array as="points">
              <mxPoint x="595" y="380" />
            </Array>
          </mxGeometry>
        </mxCell>
        <mxCell id="X-wY6sLNJJ8y5qjuj98b-13" style="edgeStyle=orthogonalEdgeStyle;rounded=0;orthogonalLoop=1;jettySize=auto;html=1;entryX=0.508;entryY=0.048;entryDx=0;entryDy=0;entryPerimeter=0;" edge="1" parent="X-wY6sLNJJ8y5qjuj98b-109" source="X-wY6sLNJJ8y5qjuj98b-8" target="X-wY6sLNJJ8y5qjuj98b-14">
          <mxGeometry relative="1" as="geometry">
            <mxPoint x="740" y="410" as="targetPoint" />
          </mxGeometry>
        </mxCell>
        <mxCell id="X-wY6sLNJJ8y5qjuj98b-8" value="API 호출" style="rounded=1;whiteSpace=wrap;html=1;shadow=0;strokeWidth=1;spacing=6;spacingTop=-4;" vertex="1" parent="X-wY6sLNJJ8y5qjuj98b-109">
          <mxGeometry x="665" y="290" width="120" height="60" as="geometry" />
        </mxCell>
        <mxCell id="X-wY6sLNJJ8y5qjuj98b-15" value="Y(관련 데이터 응답)" style="edgeStyle=orthogonalEdgeStyle;rounded=0;orthogonalLoop=1;jettySize=auto;html=1;entryX=1;entryY=0.5;entryDx=0;entryDy=0;" edge="1" parent="X-wY6sLNJJ8y5qjuj98b-109" source="X-wY6sLNJJ8y5qjuj98b-14" target="X-wY6sLNJJ8y5qjuj98b-1">
          <mxGeometry relative="1" as="geometry">
            <mxPoint x="460" y="380" as="targetPoint" />
            <Array as="points">
              <mxPoint x="530" y="465" />
              <mxPoint x="530" y="380" />
            </Array>
          </mxGeometry>
        </mxCell>
        <mxCell id="X-wY6sLNJJ8y5qjuj98b-16" value="N" style="edgeStyle=orthogonalEdgeStyle;rounded=0;orthogonalLoop=1;jettySize=auto;html=1;entryX=1;entryY=0.25;entryDx=0;entryDy=0;" edge="1" parent="X-wY6sLNJJ8y5qjuj98b-109" source="X-wY6sLNJJ8y5qjuj98b-14" target="WIyWlLk6GJQsqaUBKTNV-3">
          <mxGeometry relative="1" as="geometry">
            <Array as="points">
              <mxPoint x="810" y="465" />
              <mxPoint x="810" y="60" />
            </Array>
          </mxGeometry>
        </mxCell>
        <mxCell id="X-wY6sLNJJ8y5qjuj98b-14" value="응답에 성공했나?" style="rhombus;whiteSpace=wrap;html=1;shadow=0;fontFamily=Helvetica;fontSize=12;align=center;strokeWidth=1;spacing=6;spacingTop=-4;" vertex="1" parent="X-wY6sLNJJ8y5qjuj98b-109">
          <mxGeometry x="649" y="410" width="150" height="110" as="geometry" />
        </mxCell>
        <mxCell id="X-wY6sLNJJ8y5qjuj98b-21" style="edgeStyle=orthogonalEdgeStyle;rounded=0;orthogonalLoop=1;jettySize=auto;html=1;entryX=0.5;entryY=0;entryDx=0;entryDy=0;" edge="1" parent="X-wY6sLNJJ8y5qjuj98b-109" source="X-wY6sLNJJ8y5qjuj98b-18" target="X-wY6sLNJJ8y5qjuj98b-20">
          <mxGeometry relative="1" as="geometry" />
        </mxCell>
        <mxCell id="X-wY6sLNJJ8y5qjuj98b-18" value="기안서 작성&lt;div&gt;- 제목, 내용 입력&lt;/div&gt;&lt;div&gt;- 첨부파일 업로드&lt;/div&gt;&lt;div&gt;- 결재선 지정&lt;/div&gt;" style="rounded=1;whiteSpace=wrap;html=1;shadow=0;strokeWidth=1;spacing=6;spacingTop=-4;align=center;" vertex="1" parent="X-wY6sLNJJ8y5qjuj98b-109">
          <mxGeometry x="160" y="435" width="120" height="105" as="geometry" />
        </mxCell>
        <mxCell id="X-wY6sLNJJ8y5qjuj98b-24" style="edgeStyle=orthogonalEdgeStyle;rounded=0;orthogonalLoop=1;jettySize=auto;html=1;entryX=0.5;entryY=0;entryDx=0;entryDy=0;" edge="1" parent="X-wY6sLNJJ8y5qjuj98b-109" source="X-wY6sLNJJ8y5qjuj98b-20" target="X-wY6sLNJJ8y5qjuj98b-23">
          <mxGeometry relative="1" as="geometry" />
        </mxCell>
        <mxCell id="X-wY6sLNJJ8y5qjuj98b-20" value="기안서 제출" style="rounded=1;whiteSpace=wrap;html=1;shadow=0;strokeWidth=1;spacing=6;spacingTop=-4;" vertex="1" parent="X-wY6sLNJJ8y5qjuj98b-109">
          <mxGeometry x="160" y="585" width="120" height="60" as="geometry" />
        </mxCell>
        <mxCell id="X-wY6sLNJJ8y5qjuj98b-28" value="Y" style="edgeStyle=orthogonalEdgeStyle;rounded=0;orthogonalLoop=1;jettySize=auto;html=1;" edge="1" parent="X-wY6sLNJJ8y5qjuj98b-109" source="X-wY6sLNJJ8y5qjuj98b-23" target="X-wY6sLNJJ8y5qjuj98b-27">
          <mxGeometry relative="1" as="geometry" />
        </mxCell>
        <mxCell id="X-wY6sLNJJ8y5qjuj98b-30" value="N" style="edgeStyle=orthogonalEdgeStyle;rounded=0;orthogonalLoop=1;jettySize=auto;html=1;" edge="1" parent="X-wY6sLNJJ8y5qjuj98b-109" source="X-wY6sLNJJ8y5qjuj98b-23" target="X-wY6sLNJJ8y5qjuj98b-29">
          <mxGeometry relative="1" as="geometry" />
        </mxCell>
        <mxCell id="X-wY6sLNJJ8y5qjuj98b-23" value="첨부파일이 존재하는가?" style="rhombus;whiteSpace=wrap;html=1;shadow=0;fontFamily=Helvetica;fontSize=12;align=center;strokeWidth=1;spacing=6;spacingTop=-4;" vertex="1" parent="X-wY6sLNJJ8y5qjuj98b-109">
          <mxGeometry x="145" y="700" width="150" height="110" as="geometry" />
        </mxCell>
        <mxCell id="X-wY6sLNJJ8y5qjuj98b-34" style="edgeStyle=orthogonalEdgeStyle;rounded=0;orthogonalLoop=1;jettySize=auto;html=1;entryX=0.5;entryY=0;entryDx=0;entryDy=0;" edge="1" parent="X-wY6sLNJJ8y5qjuj98b-109" source="X-wY6sLNJJ8y5qjuj98b-27" target="X-wY6sLNJJ8y5qjuj98b-33">
          <mxGeometry relative="1" as="geometry" />
        </mxCell>
        <mxCell id="X-wY6sLNJJ8y5qjuj98b-27" value="파일 서버 업로드" style="rounded=1;whiteSpace=wrap;html=1;shadow=0;strokeWidth=1;spacing=6;spacingTop=-4;" vertex="1" parent="X-wY6sLNJJ8y5qjuj98b-109">
          <mxGeometry x="355" y="725" width="120" height="60" as="geometry" />
        </mxCell>
        <mxCell id="X-wY6sLNJJ8y5qjuj98b-48" style="edgeStyle=orthogonalEdgeStyle;rounded=0;orthogonalLoop=1;jettySize=auto;html=1;" edge="1" parent="X-wY6sLNJJ8y5qjuj98b-109" source="X-wY6sLNJJ8y5qjuj98b-29" target="X-wY6sLNJJ8y5qjuj98b-47">
          <mxGeometry relative="1" as="geometry" />
        </mxCell>
        <mxCell id="X-wY6sLNJJ8y5qjuj98b-29" value="서버 API 요청" style="rounded=1;whiteSpace=wrap;html=1;shadow=0;strokeWidth=1;spacing=6;spacingTop=-4;" vertex="1" parent="X-wY6sLNJJ8y5qjuj98b-109">
          <mxGeometry x="160" y="940" width="120" height="60" as="geometry" />
        </mxCell>
        <mxCell id="X-wY6sLNJJ8y5qjuj98b-35" value="Y&lt;div&gt;(파일 URL 응답)&lt;/div&gt;" style="edgeStyle=orthogonalEdgeStyle;rounded=0;orthogonalLoop=1;jettySize=auto;html=1;" edge="1" parent="X-wY6sLNJJ8y5qjuj98b-109" source="X-wY6sLNJJ8y5qjuj98b-33">
          <mxGeometry relative="1" as="geometry">
            <mxPoint x="190" y="940" as="targetPoint" />
            <Array as="points">
              <mxPoint x="190" y="895" />
              <mxPoint x="190" y="940" />
            </Array>
            <mxPoint as="offset" />
          </mxGeometry>
        </mxCell>
        <mxCell id="X-wY6sLNJJ8y5qjuj98b-33" value="요청에 성공했나 ?" style="rhombus;whiteSpace=wrap;html=1;shadow=0;fontFamily=Helvetica;fontSize=12;align=center;strokeWidth=1;spacing=6;spacingTop=-4;" vertex="1" parent="X-wY6sLNJJ8y5qjuj98b-109">
          <mxGeometry x="340" y="840" width="150" height="110" as="geometry" />
        </mxCell>
        <mxCell id="X-wY6sLNJJ8y5qjuj98b-36" value="N" style="edgeStyle=orthogonalEdgeStyle;rounded=0;orthogonalLoop=1;jettySize=auto;html=1;" edge="1" parent="X-wY6sLNJJ8y5qjuj98b-109" source="X-wY6sLNJJ8y5qjuj98b-33">
          <mxGeometry relative="1" as="geometry">
            <mxPoint x="280" y="465" as="targetPoint" />
            <Array as="points">
              <mxPoint x="510" y="895" />
              <mxPoint x="510" y="465" />
            </Array>
          </mxGeometry>
        </mxCell>
        <mxCell id="X-wY6sLNJJ8y5qjuj98b-40" value="N" style="edgeStyle=orthogonalEdgeStyle;rounded=0;orthogonalLoop=1;jettySize=auto;html=1;entryX=0.5;entryY=1;entryDx=0;entryDy=0;" edge="1" parent="X-wY6sLNJJ8y5qjuj98b-109" source="X-wY6sLNJJ8y5qjuj98b-37" target="X-wY6sLNJJ8y5qjuj98b-39">
          <mxGeometry relative="1" as="geometry" />
        </mxCell>
        <mxCell id="X-wY6sLNJJ8y5qjuj98b-43" style="edgeStyle=orthogonalEdgeStyle;rounded=0;orthogonalLoop=1;jettySize=auto;html=1;entryX=0.5;entryY=0;entryDx=0;entryDy=0;" edge="1" parent="X-wY6sLNJJ8y5qjuj98b-109" source="X-wY6sLNJJ8y5qjuj98b-37" target="X-wY6sLNJJ8y5qjuj98b-42">
          <mxGeometry relative="1" as="geometry" />
        </mxCell>
        <mxCell id="X-wY6sLNJJ8y5qjuj98b-37" value="결재자가 등록 되어 있는가?" style="rhombus;whiteSpace=wrap;html=1;shadow=0;fontFamily=Helvetica;fontSize=12;align=center;strokeWidth=1;spacing=6;spacingTop=-4;" vertex="1" parent="X-wY6sLNJJ8y5qjuj98b-109">
          <mxGeometry x="340" y="1169" width="150" height="110" as="geometry" />
        </mxCell>
        <mxCell id="X-wY6sLNJJ8y5qjuj98b-39" value="실패 응답" style="rounded=1;whiteSpace=wrap;html=1;shadow=0;strokeWidth=1;spacing=6;spacingTop=-4;" vertex="1" parent="X-wY6sLNJJ8y5qjuj98b-109">
          <mxGeometry x="10" y="990" width="120" height="60" as="geometry" />
        </mxCell>
        <mxCell id="X-wY6sLNJJ8y5qjuj98b-41" style="edgeStyle=orthogonalEdgeStyle;rounded=0;orthogonalLoop=1;jettySize=auto;html=1;" edge="1" parent="X-wY6sLNJJ8y5qjuj98b-109" source="X-wY6sLNJJ8y5qjuj98b-39">
          <mxGeometry relative="1" as="geometry">
            <mxPoint x="160" y="460" as="targetPoint" />
            <Array as="points">
              <mxPoint x="20" y="460" />
            </Array>
          </mxGeometry>
        </mxCell>
        <mxCell id="X-wY6sLNJJ8y5qjuj98b-44" value="N" style="edgeStyle=orthogonalEdgeStyle;rounded=0;orthogonalLoop=1;jettySize=auto;html=1;entryX=0.5;entryY=1;entryDx=0;entryDy=0;" edge="1" parent="X-wY6sLNJJ8y5qjuj98b-109" source="X-wY6sLNJJ8y5qjuj98b-42" target="X-wY6sLNJJ8y5qjuj98b-39">
          <mxGeometry relative="1" as="geometry" />
        </mxCell>
        <mxCell id="X-wY6sLNJJ8y5qjuj98b-55" value="Y" style="edgeStyle=orthogonalEdgeStyle;rounded=0;orthogonalLoop=1;jettySize=auto;html=1;entryX=0;entryY=0.5;entryDx=0;entryDy=0;" edge="1" parent="X-wY6sLNJJ8y5qjuj98b-109" source="X-wY6sLNJJ8y5qjuj98b-42" target="X-wY6sLNJJ8y5qjuj98b-56">
          <mxGeometry relative="1" as="geometry">
            <mxPoint x="600" y="1358.5" as="targetPoint" />
          </mxGeometry>
        </mxCell>
        <mxCell id="X-wY6sLNJJ8y5qjuj98b-42" value="제목, 내용에 공란은 존재하지 않는가 ?" style="rhombus;whiteSpace=wrap;html=1;shadow=0;fontFamily=Helvetica;fontSize=12;align=center;strokeWidth=1;spacing=6;spacingTop=-4;" vertex="1" parent="X-wY6sLNJJ8y5qjuj98b-109">
          <mxGeometry x="340" y="1308" width="150" height="101" as="geometry" />
        </mxCell>
        <mxCell id="X-wY6sLNJJ8y5qjuj98b-51" value="Y" style="edgeStyle=orthogonalEdgeStyle;rounded=0;orthogonalLoop=1;jettySize=auto;html=1;entryX=1;entryY=0.5;entryDx=0;entryDy=0;" edge="1" parent="X-wY6sLNJJ8y5qjuj98b-109" source="X-wY6sLNJJ8y5qjuj98b-47" target="X-wY6sLNJJ8y5qjuj98b-49">
          <mxGeometry relative="1" as="geometry" />
        </mxCell>
        <mxCell id="X-wY6sLNJJ8y5qjuj98b-52" value="N" style="edgeStyle=orthogonalEdgeStyle;rounded=0;orthogonalLoop=1;jettySize=auto;html=1;entryX=1;entryY=0.5;entryDx=0;entryDy=0;" edge="1" parent="X-wY6sLNJJ8y5qjuj98b-109" source="X-wY6sLNJJ8y5qjuj98b-47" target="X-wY6sLNJJ8y5qjuj98b-37">
          <mxGeometry relative="1" as="geometry">
            <Array as="points">
              <mxPoint x="510" y="1020" />
              <mxPoint x="510" y="1224" />
            </Array>
          </mxGeometry>
        </mxCell>
        <mxCell id="X-wY6sLNJJ8y5qjuj98b-47" value="첨부파일이 존재하는가?" style="rhombus;whiteSpace=wrap;html=1;shadow=0;fontFamily=Helvetica;fontSize=12;align=center;strokeWidth=1;spacing=6;spacingTop=-4;" vertex="1" parent="X-wY6sLNJJ8y5qjuj98b-109">
          <mxGeometry x="340" y="965" width="150" height="110" as="geometry" />
        </mxCell>
        <mxCell id="X-wY6sLNJJ8y5qjuj98b-53" value="N" style="edgeStyle=orthogonalEdgeStyle;rounded=0;orthogonalLoop=1;jettySize=auto;html=1;" edge="1" parent="X-wY6sLNJJ8y5qjuj98b-109" source="X-wY6sLNJJ8y5qjuj98b-49" target="X-wY6sLNJJ8y5qjuj98b-39">
          <mxGeometry relative="1" as="geometry" />
        </mxCell>
        <mxCell id="X-wY6sLNJJ8y5qjuj98b-54" value="Y" style="edgeStyle=orthogonalEdgeStyle;rounded=0;orthogonalLoop=1;jettySize=auto;html=1;" edge="1" parent="X-wY6sLNJJ8y5qjuj98b-109" source="X-wY6sLNJJ8y5qjuj98b-49" target="X-wY6sLNJJ8y5qjuj98b-37">
          <mxGeometry relative="1" as="geometry">
            <Array as="points">
              <mxPoint x="380" y="1150" />
            </Array>
          </mxGeometry>
        </mxCell>
        <mxCell id="X-wY6sLNJJ8y5qjuj98b-49" value="파일 주소가 유효한가?" style="rhombus;whiteSpace=wrap;html=1;shadow=0;fontFamily=Helvetica;fontSize=12;align=center;strokeWidth=1;spacing=6;spacingTop=-4;" vertex="1" parent="X-wY6sLNJJ8y5qjuj98b-109">
          <mxGeometry x="190" y="1050" width="150" height="110" as="geometry" />
        </mxCell>
        <mxCell id="X-wY6sLNJJ8y5qjuj98b-56" value="결재 문서 등록" style="rounded=1;whiteSpace=wrap;html=1;shadow=0;strokeWidth=1;spacing=6;spacingTop=-4;" vertex="1" parent="X-wY6sLNJJ8y5qjuj98b-109">
          <mxGeometry x="620" y="1328.5" width="120" height="60" as="geometry" />
        </mxCell>
        <mxCell id="X-wY6sLNJJ8y5qjuj98b-57" value="기안 등록 프로세스" style="text;html=1;align=center;verticalAlign=middle;whiteSpace=wrap;rounded=0;fontSize=20;" vertex="1" parent="X-wY6sLNJJ8y5qjuj98b-109">
          <mxGeometry width="170" height="30" as="geometry" />
        </mxCell>
      </root>
    </mxGraphModel>
  </diagram>
</mxfile>
